M48
METRIC,LZ,000.000
;FILE_FORMAT=3:3
;TYPE=PLATED
;Layer: PTH_Through
;EasyEDA v6.4.32, 2023-09-15 19:51:39
;497bf7e82d6e43ea953c9b51e4a9abc3,83cefa92b6ce4236bac46178dd46d778,10
;Gerber Generator version 0.2
;Holesize 1 = 0.310 mm
T01C0.310
;Holesize 2 = 0.900 mm
T02C0.900
;Holesize 3 = 1.000 mm
T03C1.000
;Holesize 4 = 1.016 mm
T04C1.016
;Holesize 5 = 1.200 mm
T05C1.200
;Holesize 6 = 1.400 mm
T06C1.400
%
G05
G90
T01
X-052393Y087076
T02
X-050673Y063373
X-043053Y063373
X-050800Y084201
X-043180Y084201
X-050800Y079121
X-043180Y079121
X-050673Y073787
X-043053Y073787
X-050673Y068707
X-043053Y068707
X-050673Y089789
X-043053Y089789
X-050800Y095377
X-043180Y095377
X-033020Y092075
X-033020Y089535
X-033020Y086995
X-033020Y084455
X-033020Y081915
X-033020Y079375
X-033020Y076835
X-033020Y074295
X-025400Y076835
X-025400Y079375
X-025400Y081915
X-025400Y084455
X-025400Y086995
X-025400Y089535
X-025400Y092075
X-025400Y074295
T03
X-060693Y060997
X-060693Y081317
X-060693Y078777
X-060693Y076237
X-060693Y073697
X-060693Y071157
X-060693Y068617
X-075933Y094017
X-075933Y071157
X-060693Y088937
X-060693Y091477
X-060693Y086397
X-060693Y083857
X-060693Y066077
X-060693Y063537
X-060693Y094017
X-060693Y096557
X-075933Y073697
X-075933Y068617
X-075933Y076237
X-075933Y088937
X-075933Y083820
X-075933Y078777
X-075933Y066077
X-075933Y091477
X-075933Y086397
X-075933Y081317
X-075933Y063537
X-075933Y060997
X-075933Y096557
X-085598Y095913
X-085598Y086713
T04
X-013462Y085852
X-013462Y083312
X-013462Y080772
X-013462Y072644
X-013462Y070104
X-013462Y067564
X-095250Y096647
X-095250Y094107
X-045974Y102743
X-048514Y102743
X-095123Y081661
X-095123Y079121
X-094996Y067183
X-094996Y064643
X-013589Y095631
X-013589Y098171
X-026289Y102743
X-028829Y102743
T05
X-020320Y059690
X-022860Y059690
X-025400Y059690
X-027940Y059690
X-030480Y059690
X-033020Y059690
T06
X-085344Y073914
X-085344Y076454
X-085344Y071374
M30
