G04 Layer: BottomLayer*
G04 EasyEDA v6.4.32, 2023-09-15 19:51:39*
G04 497bf7e82d6e43ea953c9b51e4a9abc3,83cefa92b6ce4236bac46178dd46d778,10*
G04 Gerber Generator version 0.2*
G04 Scale: 100 percent, Rotated: No, Reflected: No *
G04 Dimensions in millimeters *
G04 leading zeros omitted , absolute positions ,4 integer and 5 decimal *
%FSLAX45Y45*%
%MOMM*%

%ADD11C,0.2600*%
%ADD13C,0.6100*%
%ADD16C,2.0320*%
%ADD17C,1.8000*%
%ADD19C,1.5240*%
%ADD20C,1.7270*%
%ADD21C,1.8796*%
%ADD22R,1.3995X1.3995*%
%ADD23C,1.3995*%
%ADD24C,2.0000*%

%LPD*%
D11*
X-5067300Y7378700D02*
G01*
X-5067300Y6870700D01*
X-5067300Y6870700D02*
G01*
X-5067300Y6337300D01*
X-5080000Y7912100D02*
G01*
X-5080000Y8420100D01*
X-5080000Y7912100D02*
G01*
X-5067300Y7899400D01*
X-5067300Y7378700D01*
X-1346200Y6756400D02*
G01*
X-1215389Y6887210D01*
X-1215389Y7946389D01*
X-1346200Y8077200D01*
X-9499600Y6718300D02*
G01*
X-9512300Y6731000D01*
X-9512300Y7912100D01*
X-9512300Y7912100D02*
G01*
X-9628378Y8028178D01*
X-9628378Y9307321D01*
X-9525000Y9410700D01*
X-7593329Y6099810D02*
G01*
X-7775194Y6099810D01*
X-8694165Y7018528D01*
X-8694165Y7485634D01*
X-8534400Y7645400D01*
X-1346200Y7010400D02*
G01*
X-1477010Y6879589D01*
X-1477010Y6699504D01*
X-1386078Y6608826D01*
X-1304289Y6608826D01*
X-1170431Y6742684D01*
X-1170431Y8155431D01*
X-1346200Y8331200D01*
X-3302000Y7429500D02*
G01*
X-3302000Y5969000D01*
X-9512300Y8166100D02*
G01*
X-9409429Y8268970D01*
X-9409429Y9549129D01*
X-9525000Y9664700D01*
X-8559800Y9591294D02*
G01*
X-8370570Y9402063D01*
X-8370570Y7301229D01*
X-8534400Y7137400D01*
X-7593329Y8639810D02*
G01*
X-6305550Y7352029D01*
X-6305550Y6948170D01*
X-6091936Y6734810D01*
X-5696712Y6734810D01*
X-5168645Y6206744D01*
X-4435602Y6206744D01*
X-4305300Y6337300D01*
X-4305300Y6870700D02*
G01*
X-4169918Y6735318D01*
X-4169918Y6281928D01*
X-4287265Y6164579D01*
X-5550407Y6164579D01*
X-5866384Y6480810D01*
X-6096000Y6480810D01*
X-7448550Y7833105D01*
X-7448550Y8237220D01*
X-7593329Y8382000D01*
X-2540000Y5969000D02*
G01*
X-2714244Y5794755D01*
X-3411981Y5794755D01*
X-3780281Y6163055D01*
X-3780281Y6853681D01*
X-4305300Y7378700D01*
X-4318000Y7912100D02*
G01*
X-3962400Y7556500D01*
X-3286505Y7556500D01*
X-2794000Y7063994D01*
X-2794000Y5969000D01*
X-4318000Y8420100D02*
G01*
X-4456684Y8281415D01*
X-4456684Y7788910D01*
X-3497071Y6829044D01*
X-3497071Y5939536D01*
X-3394455Y5837173D01*
X-3179826Y5837173D01*
X-3048000Y5969000D01*
X-3302000Y8191500D02*
G01*
X-3302000Y8445500D01*
X-5080000Y9537700D02*
G01*
X-5080000Y9115552D01*
X-5067300Y8978900D02*
G01*
X-5067300Y9102852D01*
X-5080000Y9115552D01*
X-5080000Y9115552D02*
G01*
X-5421884Y9115552D01*
X-6042152Y8495284D01*
X-6116065Y8495284D01*
X-6179820Y8431784D01*
X-6179820Y6972045D01*
X-6069329Y6861810D01*
X-2882900Y10274300D02*
G01*
X-4178300Y8978900D01*
X-4305300Y8978900D01*
X-4318000Y9537700D02*
G01*
X-4851400Y10071100D01*
X-4851400Y10274300D01*
X-3302000Y8953500D02*
G01*
X-3399789Y8855710D01*
X-5599429Y8855710D01*
X-6069329Y8385810D01*
X-3302000Y9207500D02*
G01*
X-3302000Y9601200D01*
X-2628900Y10274300D01*
X-7593329Y6861810D02*
G01*
X-7707121Y6975602D01*
X-7707121Y8677910D01*
X-7640065Y8745220D01*
X-6977634Y8745220D01*
X-6194044Y9528810D01*
X-5774944Y9528810D01*
X-4910581Y10393171D01*
X-4716271Y10393171D01*
X-4597400Y10274300D01*
X-8559800Y8671305D02*
G01*
X-9361170Y7869936D01*
X-9361170Y6602729D01*
X-9499600Y6464300D01*
X-3302000Y7937500D02*
G01*
X-2667000Y8572500D01*
X-2349500Y8572500D01*
X-1358900Y9563100D01*
X-3302000Y8699500D02*
G01*
X-2184400Y9817100D01*
X-1358900Y9817100D01*
X-6069329Y7877810D02*
G01*
X-5239257Y8707628D01*
G36*
X-8659368Y7037323D02*
G01*
X-8659368Y7237476D01*
X-8409431Y7237476D01*
X-8409431Y7037323D01*
G37*
G36*
X-1447800Y8686800D02*
G01*
X-1244600Y8686800D01*
X-1244600Y8483600D01*
X-1447800Y8483600D01*
G37*
D16*
G01*
X-1346200Y8331200D03*
G01*
X-1346200Y8077200D03*
G36*
X-1447800Y7366000D02*
G01*
X-1244600Y7366000D01*
X-1244600Y7162800D01*
X-1447800Y7162800D01*
G37*
G01*
X-1346200Y7010400D03*
G01*
X-1346200Y6756400D03*
D17*
G01*
X-2032000Y5969000D03*
G01*
X-2286000Y5969000D03*
G01*
X-2540000Y5969000D03*
G01*
X-2794000Y5969000D03*
G01*
X-3048000Y5969000D03*
G36*
X-3391999Y6058999D02*
G01*
X-3212000Y6058999D01*
X-3212000Y5879000D01*
X-3391999Y5879000D01*
G37*
D19*
G01*
X-6069304Y6099708D03*
G01*
X-6069304Y8131708D03*
G01*
X-6069304Y7877708D03*
G01*
X-6069304Y7623708D03*
G01*
X-6069304Y7369708D03*
G01*
X-6069304Y7115708D03*
G01*
X-6069304Y6861708D03*
G01*
X-7593304Y9401708D03*
G01*
X-7593304Y7115708D03*
G01*
X-6069304Y8893708D03*
G01*
X-6069304Y9147708D03*
G01*
X-6069304Y8639708D03*
G01*
X-6069304Y8385708D03*
G01*
X-6069304Y6607708D03*
G01*
X-6069304Y6353708D03*
G01*
X-6069304Y9401708D03*
G01*
X-6069304Y9655708D03*
G01*
X-7593304Y7369708D03*
G01*
X-7593304Y6861708D03*
G01*
X-7593304Y7623708D03*
G01*
X-7593304Y8893708D03*
G01*
X-7593304Y8382000D03*
G01*
X-7593304Y7877708D03*
G01*
X-7593304Y6607708D03*
G01*
X-7593304Y9147708D03*
G01*
X-7593304Y8639708D03*
G01*
X-7593304Y8131708D03*
G01*
X-7593304Y6353708D03*
G01*
X-7593304Y6099708D03*
G01*
X-7593304Y9655708D03*
D20*
G01*
X-9525000Y9664700D03*
G01*
X-9525000Y9410700D03*
G01*
X-4597400Y10274300D03*
G01*
X-4851400Y10274300D03*
G01*
X-9512300Y8166100D03*
G01*
X-9512300Y7912100D03*
G01*
X-9499600Y6718300D03*
G01*
X-9499600Y6464300D03*
G01*
X-1358900Y9563100D03*
G01*
X-1358900Y9817100D03*
G01*
X-2628900Y10274300D03*
G01*
X-2882900Y10274300D03*
D21*
G01*
X-5067300Y6337300D03*
G01*
X-4305300Y6337300D03*
G01*
X-5080000Y8420100D03*
G01*
X-4318000Y8420100D03*
G01*
X-5080000Y7912100D03*
G01*
X-4318000Y7912100D03*
G01*
X-5067300Y7378700D03*
G01*
X-4305300Y7378700D03*
G01*
X-5067300Y6870700D03*
G01*
X-4305300Y6870700D03*
G01*
X-5067300Y8978900D03*
G01*
X-4305300Y8978900D03*
G01*
X-5080000Y9537700D03*
G01*
X-4318000Y9537700D03*
D22*
G01*
X-3302000Y9207500D03*
D23*
G01*
X-3302000Y8953500D03*
G01*
X-3302000Y8699500D03*
G01*
X-3302000Y8445500D03*
G01*
X-3302000Y8191500D03*
G01*
X-3302000Y7937500D03*
G01*
X-3302000Y7683500D03*
G01*
X-3302000Y7429500D03*
G01*
X-2540000Y7683500D03*
G01*
X-2540000Y7937500D03*
G01*
X-2540000Y8191500D03*
G01*
X-2540000Y8445500D03*
G01*
X-2540000Y8699500D03*
G01*
X-2540000Y8953500D03*
G01*
X-2540000Y9207500D03*
G01*
X-2540000Y7429500D03*
D17*
G01*
X-8559800Y9591294D03*
G01*
X-8559800Y8671305D03*
D13*
G01*
X-5239257Y8707628D03*
D24*
X-8559398Y7391400D02*
G01*
X-8509398Y7391400D01*
X-8559398Y7645400D02*
G01*
X-8509398Y7645400D01*
M02*
