G04 Layer: TopSolderMaskLayer*
G04 EasyEDA v6.4.32, 2023-09-15 19:51:39*
G04 497bf7e82d6e43ea953c9b51e4a9abc3,83cefa92b6ce4236bac46178dd46d778,10*
G04 Gerber Generator version 0.2*
G04 Scale: 100 percent, Rotated: No, Reflected: No *
G04 Dimensions in millimeters *
G04 leading zeros omitted , absolute positions ,4 integer and 5 decimal *
%FSLAX45Y45*%
%MOMM*%

%ADD28C,2.1016*%
%ADD31C,2.2352*%
%ADD32C,1.9016*%
%ADD34C,1.7272*%
%ADD35C,1.9302*%
%ADD36C,1.9812*%
%ADD38C,1.6027*%

%LPD*%
D28*
X-8559398Y7391400D02*
G01*
X-8509398Y7391400D01*
X-8559398Y7645400D02*
G01*
X-8509398Y7645400D01*
G36*
X-8664447Y7032244D02*
G01*
X-8664447Y7242555D01*
X-8404352Y7242555D01*
X-8404352Y7032244D01*
G37*
G36*
X-1457960Y8473439D02*
G01*
X-1457960Y8696960D01*
X-1234439Y8696960D01*
X-1234439Y8473439D01*
G37*
D31*
G01*
X-1346200Y8331200D03*
G01*
X-1346200Y8077200D03*
G36*
X-1457960Y7152639D02*
G01*
X-1457960Y7376160D01*
X-1234439Y7376160D01*
X-1234439Y7152639D01*
G37*
G01*
X-1346200Y7010400D03*
G01*
X-1346200Y6756400D03*
D32*
G01*
X-2032000Y5969000D03*
G01*
X-2286000Y5969000D03*
G01*
X-2540000Y5969000D03*
G01*
X-2794000Y5969000D03*
G01*
X-3048000Y5969000D03*
G36*
X-3396995Y5874004D02*
G01*
X-3396995Y6063995D01*
X-3207004Y6063995D01*
X-3207004Y5874004D01*
G37*
D34*
G01*
X-6069304Y6099708D03*
G01*
X-6069304Y8131708D03*
G01*
X-6069304Y7877708D03*
G01*
X-6069304Y7623708D03*
G01*
X-6069304Y7369708D03*
G01*
X-6069304Y7115708D03*
G01*
X-6069304Y6861708D03*
G01*
X-7593304Y9401708D03*
G01*
X-7593304Y7115708D03*
G01*
X-6069304Y8893708D03*
G01*
X-6069304Y9147708D03*
G01*
X-6069304Y8639708D03*
G01*
X-6069304Y8385708D03*
G01*
X-6069304Y6607708D03*
G01*
X-6069304Y6353708D03*
G01*
X-6069304Y9401708D03*
G01*
X-6069304Y9655708D03*
G01*
X-7593304Y7369708D03*
G01*
X-7593304Y6861708D03*
G01*
X-7593304Y7623708D03*
G01*
X-7593304Y8893708D03*
G01*
X-7593304Y8382000D03*
G01*
X-7593304Y7877708D03*
G01*
X-7593304Y6607708D03*
G01*
X-7593304Y9147708D03*
G01*
X-7593304Y8639708D03*
G01*
X-7593304Y8131708D03*
G01*
X-7593304Y6353708D03*
G01*
X-7593304Y6099708D03*
G01*
X-7593304Y9655708D03*
D35*
G01*
X-9525000Y9664700D03*
G01*
X-9525000Y9410700D03*
G01*
X-4597400Y10274300D03*
G01*
X-4851400Y10274300D03*
G01*
X-9512300Y8166100D03*
G01*
X-9512300Y7912100D03*
G01*
X-9499600Y6718300D03*
G01*
X-9499600Y6464300D03*
G01*
X-1358900Y9563100D03*
G01*
X-1358900Y9817100D03*
G01*
X-2628900Y10274300D03*
G01*
X-2882900Y10274300D03*
D36*
G01*
X-5067300Y6337300D03*
G01*
X-4305300Y6337300D03*
G01*
X-5080000Y8420100D03*
G01*
X-4318000Y8420100D03*
G01*
X-5080000Y7912100D03*
G01*
X-4318000Y7912100D03*
G01*
X-5067300Y7378700D03*
G01*
X-4305300Y7378700D03*
G01*
X-5067300Y6870700D03*
G01*
X-4305300Y6870700D03*
G01*
X-5067300Y8978900D03*
G01*
X-4305300Y8978900D03*
G01*
X-5080000Y9537700D03*
G01*
X-4318000Y9537700D03*
G36*
X-3382010Y9127236D02*
G01*
X-3382010Y9287510D01*
X-3221736Y9287510D01*
X-3221736Y9127236D01*
G37*
D38*
G01*
X-3302000Y8953500D03*
G01*
X-3302000Y8699500D03*
G01*
X-3302000Y8445500D03*
G01*
X-3302000Y8191500D03*
G01*
X-3302000Y7937500D03*
G01*
X-3302000Y7683500D03*
G01*
X-3302000Y7429500D03*
G01*
X-2540000Y7683500D03*
G01*
X-2540000Y7937500D03*
G01*
X-2540000Y8191500D03*
G01*
X-2540000Y8445500D03*
G01*
X-2540000Y8699500D03*
G01*
X-2540000Y8953500D03*
G01*
X-2540000Y9207500D03*
G01*
X-2540000Y7429500D03*
D32*
G01*
X-8559800Y9591294D03*
G01*
X-8559800Y8671305D03*
M02*
